REM DIRINDEX 1\2,1\3,1\4,1\5,1\6,1\7,1\8
REM DIRNAME folder01,folder02,folder03,folder04,folder05,folder06,folder07,folder08
TITLE ""
FILE "006 ‚Å‚é•¶76.mp3" MP3
  TRACK 01 AUDIO
    TITLE "8:cjc150_3637"
    INDEX 01 00:00:00
  TRACK 02 AUDIO
    TITLE "0:"
    INDEX 01 00:01:56
  TRACK 03 AUDIO
    TITLE "2:cjc150_3638"
    INDEX 01 00:02:38
  TRACK 04 AUDIO
    TITLE "0:"
    INDEX 01 00:09:18
  TRACK 05 AUDIO
    TITLE "8:cjc150_3639"
    INDEX 01 00:10:55
  TRACK 06 AUDIO
    TITLE "0:"
    INDEX 01 00:13:33
  TRACK 07 AUDIO
    TITLE "3:cjc150_3640"
    INDEX 01 00:14:17
  TRACK 08 AUDIO
    TITLE "3:cjc150_3641"
    INDEX 01 00:15:44
  TRACK 09 AUDIO
    TITLE "3:cjc150_3642"
    INDEX 01 00:16:65
  TRACK 10 AUDIO
    TITLE "3:cjc150_3643"
    INDEX 01 00:18:62
  TRACK 11 AUDIO
    TITLE "3:cjc150_3644"
    INDEX 01 00:20:55
  TRACK 12 AUDIO
    TITLE "3:cjc150_3645"
    INDEX 01 00:22:40
  TRACK 13 AUDIO
    TITLE "3:cjc150_3646"
    INDEX 01 00:24:24
  TRACK 14 AUDIO
    TITLE "3:cjc150_3647"
    INDEX 01 00:25:58
  TRACK 15 AUDIO
    TITLE "3:cjc150_3648"
    INDEX 01 00:27:18
  TRACK 16 AUDIO
    TITLE "3:cjc150_3649"
    INDEX 01 00:28:53
  TRACK 17 AUDIO
    TITLE "3:cjc150_3650"
    INDEX 01 00:30:10
  TRACK 18 AUDIO
    TITLE "3:cjc150_3651"
    INDEX 01 00:32:07
  TRACK 19 AUDIO
    TITLE "8:cjc150_3652"
    INDEX 01 00:34:00
  TRACK 20 AUDIO
    TITLE "0:"
    INDEX 01 00:36:50
  TRACK 21 AUDIO
    TITLE "4:cjc150_3653"
    INDEX 01 00:37:34
  TRACK 22 AUDIO
    TITLE "4:cjc150_3654"
    INDEX 01 00:39:70
  TRACK 23 AUDIO
    TITLE "4:cjc150_3655"
    INDEX 01 00:42:70
  TRACK 24 AUDIO
    TITLE "4:cjc150_3656"
    INDEX 01 00:45:33
  TRACK 25 AUDIO
    TITLE "4:cjc150_3657"
    INDEX 01 00:48:26
  TRACK 26 AUDIO
    TITLE "4:cjc150_3658"
    INDEX 01 00:50:70
  TRACK 27 AUDIO
    TITLE "8:cjc150_3659"
    INDEX 01 00:54:01
  TRACK 28 AUDIO
    TITLE "0:"
    INDEX 01 00:56:69
  TRACK 29 AUDIO
    TITLE "5:cjc150_3660"
    INDEX 01 00:57:58
  TRACK 30 AUDIO
    TITLE "5:cjc150_3661"
    INDEX 01 00:59:26
  TRACK 31 AUDIO
    TITLE "5:cjc150_3662"
    INDEX 01 01:00:47
  TRACK 32 AUDIO
    TITLE "5:cjc150_3663"
    INDEX 01 01:01:74
  TRACK 33 AUDIO
    TITLE "5:cjc150_3664"
    INDEX 01 01:03:16
  TRACK 34 AUDIO
    TITLE "5:cjc150_3665"
    INDEX 01 01:04:74
  TRACK 35 AUDIO
    TITLE "5:cjc150_3666"
    INDEX 01 01:07:49
  TRACK 36 AUDIO
    TITLE "5:cjc150_3667"
    INDEX 01 01:09:46
  TRACK 37 AUDIO
    TITLE "5:cjc150_3668"
    INDEX 01 01:11:31
  TRACK 38 AUDIO
    TITLE "5:cjc150_3669"
    INDEX 01 01:14:19
  TRACK 39 AUDIO
    TITLE "5:cjc150_3670"
    INDEX 01 01:16:73
  TRACK 40 AUDIO
    TITLE "5:cjc150_3671"
    INDEX 01 01:18:58
  TRACK 41 AUDIO
    TITLE "5:cjc150_3672"
    INDEX 01 01:20:49
  TRACK 42 AUDIO
    TITLE "5:cjc150_3673"
    INDEX 01 01:22:29
  TRACK 43 AUDIO
    TITLE "5:cjc150_3674"
    INDEX 01 01:24:53
  TRACK 44 AUDIO
    TITLE "5:cjc150_3675"
    INDEX 01 01:26:15
  TRACK 45 AUDIO
    TITLE "5:cjc150_3676"
    INDEX 01 01:27:38
  TRACK 46 AUDIO
    TITLE "5:cjc150_3677"
    INDEX 01 01:29:25
  TRACK 47 AUDIO
    TITLE "5:cjc150_3678"
    INDEX 01 01:31:41
  TRACK 48 AUDIO
    TITLE "5:cjc150_3679"
    INDEX 01 01:32:74
  TRACK 49 AUDIO
    TITLE "5:cjc150_3680"
    INDEX 01 01:34:26
  TRACK 50 AUDIO
    TITLE "5:cjc150_3681"
    INDEX 01 01:35:59
  TRACK 51 AUDIO
    TITLE "5:cjc150_3682"
    INDEX 01 01:38:47
  TRACK 52 AUDIO
    TITLE "5:cjc150_3683"
    INDEX 01 01:40:48
  TRACK 53 AUDIO
    TITLE "8:cjc150_3684"
    INDEX 01 01:42:39
  TRACK 54 AUDIO
    TITLE "0:"
    INDEX 01 01:45:22
  TRACK 55 AUDIO
    TITLE "6:cjc150_3685"
    INDEX 01 01:46:04
  TRACK 56 AUDIO
    TITLE "6:cjc150_3686"
    INDEX 01 01:48:11
  TRACK 57 AUDIO
    TITLE "6:cjc150_3687"
    INDEX 01 01:51:44
  TRACK 58 AUDIO
    TITLE "6:cjc150_3688"
    INDEX 01 01:53:74
  TRACK 59 AUDIO
    TITLE "6:cjc150_3689"
    INDEX 01 01:56:36
  TRACK 60 AUDIO
    TITLE "6:cjc150_3690"
    INDEX 01 01:59:50
  TRACK 61 AUDIO
    TITLE "6:cjc150_3691"
    INDEX 01 02:03:02
  TRACK 62 AUDIO
    TITLE "6:cjc150_3692"
    INDEX 01 02:05:40
  TRACK 63 AUDIO
    TITLE "6:cjc150_3693"
    INDEX 01 02:08:01
  TRACK 64 AUDIO
    TITLE "6:cjc150_3694"
    INDEX 01 02:10:08
  TRACK 65 AUDIO
    TITLE "6:cjc150_3695"
    INDEX 01 02:13:34
  TRACK 66 AUDIO
    TITLE "6:cjc150_3696"
    INDEX 01 02:15:74
  TRACK 67 AUDIO
    TITLE "8:cjc150_3697"
    INDEX 01 02:17:61
  TRACK 68 AUDIO
    TITLE "0:"
    INDEX 01 02:19:39
  TRACK 69 AUDIO
    TITLE "7:cjc150_3698"
    INDEX 01 02:20:18
  TRACK 70 AUDIO
    TITLE "7:cjc150_3699"
    INDEX 01 02:27:01
  TRACK 71 AUDIO
    TITLE "0:"
    INDEX 01 02:34:50
